HIERARCHY
ROOT Hips
{
    OFFSET 0.000000 0.000000 0.000000
    CHANNELS 6 Xposition Yposition Zposition Zrotation Xrotation Yrotation
    JOINT Spine
    {
        OFFSET -0.000000 7.790525 0.000000
        CHANNELS 3 Zrotation Xrotation Yrotation
        JOINT Spine1
        {
            OFFSET -0.000000 20.430923 0.000000
            CHANNELS 3 Zrotation Xrotation Yrotation
            JOINT Neck
            {
                OFFSET -0.000000 22.331051 0.000000
                CHANNELS 3 Zrotation Xrotation Yrotation
                JOINT Head
                {
                    OFFSET -0.000000 14.725992 1.900128
                    CHANNELS 3 Zrotation Xrotation Yrotation
                    End Site
                    {
                        OFFSET -0.000000 19.001280 0.000000
                    }
                }
            }
            JOINT LeftShoulder
            {
                OFFSET 3.812537 19.294388 -0.177115
                CHANNELS 3 Zrotation Xrotation Yrotation
                JOINT LeftArm
                {
                    OFFSET 9.162892 0.000000 0.000000
                    CHANNELS 3 Zrotation Xrotation Yrotation
                    JOINT LeftForeArm
                    {
                        OFFSET 30.063545 0.000000 0.000000
                        CHANNELS 3 Zrotation Xrotation Yrotation
                        JOINT LeftHand
                        {
                            OFFSET 28.325521 0.000000 0.000000
                            CHANNELS 3 Zrotation Xrotation Yrotation
                            End Site
                            {
                                OFFSET 14.250961 0.000000 0.000000
                            }
                        }
                    }
                }
            }
            JOINT RightShoulder
            {
                OFFSET -3.786349 19.294388 -0.177115
                CHANNELS 3 Zrotation Xrotation Yrotation
                JOINT RightArm
                {
                    OFFSET -9.162892 0.000000 0.000000
                    CHANNELS 3 Zrotation Xrotation Yrotation
                    JOINT RightForeArm
                    {
                        OFFSET -30.063545 0.000000 0.000000
                        CHANNELS 3 Zrotation Xrotation Yrotation
                        JOINT RightHand
                        {
                            OFFSET -28.325521 0.000000 0.000000
                            CHANNELS 3 Zrotation Xrotation Yrotation
                            End Site
                            {
                                OFFSET -14.250961 0.000000 0.000000
                            }
                        }
                    }
                }
            }
        }
    }
    JOINT LeftUpLeg
    {
        OFFSET 9.500640 0.000000 0.000000
        CHANNELS 3 Zrotation Xrotation Yrotation
        JOINT LeftLeg
        {
            OFFSET -0.000000 -41.640518 0.000000
            CHANNELS 3 Zrotation Xrotation Yrotation
            JOINT LeftFoot
            {
                OFFSET -0.000000 -37.182968 0.000000
                CHANNELS 3 Zrotation Xrotation Yrotation
                JOINT LeftToeBase
                {
                    OFFSET -0.000000 -6.175416 14.250961
                    CHANNELS 3 Zrotation Xrotation Yrotation
                    End Site
                    {
                        OFFSET -0.000000 0.000000 3.800256
                    }
                }
            }
        }
    }
    JOINT RightUpLeg
    {
        OFFSET -9.500640 0.000000 0.000000
        CHANNELS 3 Zrotation Xrotation Yrotation
        JOINT RightLeg
        {
            OFFSET -0.000000 -41.640518 0.000000
            CHANNELS 3 Zrotation Xrotation Yrotation
            JOINT RightFoot
            {
                OFFSET -0.000000 -37.182968 0.000000
                CHANNELS 3 Zrotation Xrotation Yrotation
                JOINT RightToeBase
                {
                    OFFSET -0.000000 -6.175416 14.250961
                    CHANNELS 3 Zrotation Xrotation Yrotation
                    End Site
                    {
                        OFFSET -0.000000 0.000000 3.800256
                    }
                }
            }
        }
    }
}
MOTION
Frames:    7
Frame Time:    0.010000
33.810406    89.403854    77.549652    -2.095625    0.091291    -10.145055    -4.582517    -9.093715    -3.739192    -0.779223    3.281138    -1.086332    0.867462    20.999750    -23.886066    16.557144    -5.770602    -25.522203    0.901143    7.220055    0.838854    -74.683350    59.272987    -4.156801    12.721236    -23.104788    -6.139648    -23.137991    -22.023077    -2.375988    -4.039816    -0.365540    -5.329831    16.259485    13.864367    20.309313    -36.186558    -69.955040    -10.307637    -19.633678    -70.318558    -13.272257    0.186321    5.097548    7.304653    -0.550069    2.753373    5.438801    1.342501    -9.558023    16.527605    0.000000    0.000000    0.000000    -2.159028    0.472500    3.207280    2.386833    5.988350    8.132478    0.477433    -6.040918    -5.394221    0.000000    0.000000    0.000000    
33.815655    89.405235    77.548203    -2.098248    0.104315    -10.099152    -4.580430    -9.081393    -3.744878    -0.797325    3.270477    -1.088049    0.846610    21.007843    -23.859962    16.582617    -5.787085    -25.501499    0.906039    7.218278    0.857750    -74.382401    59.241421    -4.505867    12.449586    -23.031885    -5.825760    -23.133516    -21.944016    -2.645507    -4.116664    -0.566149    -5.392922    16.152119    13.337772    20.163694    -33.647186    -69.884132    -8.478793    -18.093975    -70.141121    -11.368829    0.143098    5.045771    7.312022    -0.548551    2.756880    5.375476    0.585737    -9.563900    16.881895    0.000000    0.000000    0.000000    -2.154246    0.462736    3.187391    2.378399    5.996098    8.133649    0.534243    -6.040793    -5.422711    0.000000    0.000000    0.000000    
33.822502    89.405861    77.549240    -2.092961    0.117717    -10.057325    -4.583950    -9.079394    -3.743375    -0.812493    3.283557    -1.086903    0.916344    21.070860    -23.836647    16.523285    -5.997317    -25.421095    0.905865    7.203886    0.887955    -74.761757    59.229843    -3.999587    12.705329    -23.070688    -6.151932    -23.247234    -21.976255    -2.427321    -4.122220    -0.554557    -5.457220    16.266638    13.413942    20.125517    -33.513985    -69.836830    -8.059959    -17.667879    -70.087151    -10.904016    0.141369    5.033895    7.306752    -0.555676    2.740364    5.388842    0.581070    -9.557549    16.841637    0.000000    0.000000    0.000000    -2.160189    0.453859    3.170465    2.383446    5.992523    8.090107    -0.661292    -6.170221    -5.197607    0.000000    0.000000    0.000000    
33.833115    89.421616    77.527145    -2.076962    0.178805    -10.055200    -4.597269    -9.117166    -3.726429    -0.833456    3.266533    -1.079837    0.806162    21.018877    -23.823023    16.673262    -5.748231    -25.488461    0.948037    7.217478    0.867558    -74.801773    59.077263    -3.939363    12.621010    -23.016800    -6.195285    -23.195333    -21.940496    -2.334407    -4.063853    -0.504770    -5.431949    16.361052    13.353317    20.006124    -33.361588    -70.040718    -7.637350    -18.097281    -70.205757    -11.301726    0.128884    4.937673    7.371841    -0.544544    2.763629    5.311573    0.469936    -9.485602    16.876087    0.000000    0.000000    0.000000    -2.165478    0.351527    3.158068    2.378077    6.039246    8.080421    -1.283381    -6.218827    -5.083602    0.000000    0.000000    0.000000    
33.842915    89.414810    77.544449    -2.057590    0.170456    -9.997866    -4.586523    -9.256115    -3.776584    -0.895984    3.537434    -1.091001    0.743772    20.963442    -23.598698    16.759108    -5.944407    -25.257698    0.964318    7.109747    0.954480    -74.830391    59.173534    -3.881371    12.643375    -23.066713    -6.163014    -23.243444    -22.002991    -2.277027    -4.140171    -0.652659    -5.452133    16.611870    13.291157    19.943972    -32.995010    -70.055031    -6.959744    -17.471537    -70.193390    -10.747672    0.102331    4.962018    7.345758    -0.541287    2.739663    5.287747    0.580048    -9.507146    16.846981    0.000000    0.000000    0.000000    -2.198299    0.381766    3.128982    2.380430    6.028871    8.105425    -1.344812    -6.268772    -5.112909    0.000000    0.000000    0.000000    
33.838932    89.405617    77.551727    -2.093337    0.148794    -9.959500    -4.554579    -9.228705    -3.791626    -0.922481    3.561886    -1.096309    0.672005    20.848797    -23.674084    16.772032    -5.678043    -25.397234    0.964685    7.100159    0.975885    -74.880913    59.146126    -3.787207    12.645458    -23.070616    -6.145890    -23.244963    -22.008440    -2.277599    -4.109249    -0.658511    -5.435027    16.695755    13.508706    19.862774    -33.126789    -70.034233    -6.714611    -16.968029    -70.193939    -10.221573    0.190858    5.030841    7.364631    -0.544847    2.727340    5.258129    1.355942    -9.539234    16.469185    0.000000    0.000000    0.000000    -2.158413    0.424593    3.118079    2.378487    6.017900    8.013526    -1.291929    -6.273857    -5.076808    0.000000    0.000000    0.000000    
33.853928    89.407768    77.557884    -2.040415    0.165198    -9.920175    -4.618133    -9.246415    -3.783463    -0.911363    3.570933    -1.091835    0.695444    20.840742    -23.677992    16.728462    -5.695148    -25.388407    0.963266    7.069187    0.977386    -74.935066    59.033848    -3.672674    12.519173    -22.980627    -6.196011    -23.181286    -21.907427    -2.344843    -4.084714    -0.597206    -5.507029    16.901035    14.985117    20.022163    -37.158367    -70.316467    -9.446086    -18.754189    -70.689125    -12.457469    0.076616    4.973927    7.346397    -0.526813    2.719758    5.280394    0.570679    -9.509328    16.760197    0.000000    0.000000    0.000000    -2.218992    0.402827    3.074886    2.369067    6.032371    8.112226    -1.220863    -6.291657    -5.159089    0.000000    0.000000    0.000000    
